<?xml version="1.0" encoding="UTF-8" standalone="no"?>
<!-- Created with Inkscape (http://www.inkscape.org/) -->

<svg
   width="130mm"
   height="55mm"
   viewBox="0 0 130 55"
   version="1.1"
   id="svg1"
   xml:space="preserve"
   inkscape:export-filename="face.webp"
   inkscape:export-xdpi="94.3"
   inkscape:export-ydpi="94.3"
   inkscape:version="1.3.2 (091e20e, 2023-11-25, custom)"
   sodipodi:docname="face.svg"
   xmlns:inkscape="http://www.inkscape.org/namespaces/inkscape"
   xmlns:sodipodi="http://sodipodi.sourceforge.net/DTD/sodipodi-0.dtd"
   xmlns="http://www.w3.org/2000/svg"
   xmlns:svg="http://www.w3.org/2000/svg"><sodipodi:namedview
     id="namedview1"
     pagecolor="#ffffff"
     bordercolor="#666666"
     borderopacity="1.0"
     inkscape:showpageshadow="2"
     inkscape:pageopacity="0.0"
     inkscape:pagecheckerboard="0"
     inkscape:deskcolor="#d1d1d1"
     inkscape:document-units="mm"
     inkscape:export-bgcolor="#ffffffff"
     inkscape:zoom="0.75722503"
     inkscape:cx="242.9925"
     inkscape:cy="316.94673"
     inkscape:window-width="1920"
     inkscape:window-height="1009"
     inkscape:window-x="-8"
     inkscape:window-y="1072"
     inkscape:window-maximized="1"
     inkscape:current-layer="layer1" /><defs
     id="defs1" /><g
     inkscape:label="Layer 1"
     inkscape:groupmode="layer"
     id="layer1"
     transform="translate(-40.821856,-64.703279)"><path
       style="fill:#000000;stroke-width:0.920488"
       d="m 80.67052,113.50587 c 0.07199,-0.10323 0.748576,-0.21188 1.503424,-0.24147 2.12833,-0.0834 5.668319,-0.84208 7.62275,-1.63368 3.00266,-1.21616 4.020323,-1.70713 4.156211,-2.00519 0.0718,-0.15756 0.250842,-0.28648 0.397803,-0.28648 0.273194,0 3.81835,-2.45599 3.81835,-2.64524 0,-0.0574 -0.669658,0.35196 -1.488145,0.90983 -3.362686,2.29199 -5.988438,3.09467 -10.546443,3.22401 -3.058337,0.0868 -3.070809,0.0851 -0.817841,-0.1097 2.552574,-0.22072 3.25006,-0.46216 1.33509,-0.46216 -1.599989,0 -4.528778,-0.44808 -4.528778,-0.69287 0,-0.1031 -0.378514,-0.26001 -0.841132,-0.34869 -1.05807,-0.20283 -3.499532,-1.28161 -4.481169,-1.98005 -2.892342,-2.0579 -5.619774,-5.2074 -7.035415,-8.124134 -1.974375,-4.067897 -2.649169,-9.811328 -1.625216,-13.832926 0.826635,-3.246605 1.702932,-5.363887 3.024933,-7.308794 1.846939,-2.717154 1.551276,-2.571814 4.178415,-2.054118 1.237742,0.243897 2.890982,0.551825 3.673883,0.684267 0.782891,0.132452 1.481679,0.31432 1.552851,0.404154 0.07121,0.08984 2.516908,0.609271 5.434977,1.154287 2.918058,0.545016 5.363805,1.066099 5.434976,1.15796 0.07121,0.09186 0.478797,0.215581 0.905829,0.274942 1.801473,0.250403 10.104277,1.899709 10.222927,2.030731 0.0712,0.07856 0.85536,0.26744 1.74264,0.419659 1.61465,0.277012 4.15253,0.06661 5.21114,-0.432081 0.23225,-0.109401 1.5869,-0.417701 3.01035,-0.685116 1.42345,-0.267406 3.28686,-0.629601 4.14094,-0.804886 0.85406,-0.175276 2.0187,-0.389333 2.58808,-0.475676 0.56938,-0.08636 1.1517,-0.231814 1.29404,-0.323259 0.24748,-0.158975 2.083,-0.538892 7.76426,-1.607027 1.42344,-0.267622 2.82101,-0.584133 3.1057,-0.703367 0.2847,-0.119224 1.04171,-0.307034 1.68226,-0.417346 0.64054,-0.11032 2.08035,-0.374053 3.19957,-0.586074 1.11921,-0.212021 2.18713,-0.333775 2.37314,-0.270559 0.35318,0.120004 2.22137,2.801809 3.05352,4.38336 1.23346,2.344219 2.24372,6.729883 2.24372,9.740291 0,3.817901 -1.24832,8.272521 -3.10788,11.090442 -0.56817,0.86101 -1.03305,1.63319 -1.03305,1.71595 0,0.0827 -0.52047,0.66434 -1.15662,1.29239 -3.35651,3.31384 -4.11952,3.79505 -9.14241,5.76592 -0.46887,0.18398 -1.89759,0.39446 -3.17493,0.46775 -1.27734,0.0733 -2.2564,0.19171 -2.1757,0.26318 0.0807,0.0715 1.10181,0.20298 2.26912,0.29225 1.76267,0.13482 1.59602,0.14807 -0.98334,0.0782 -2.87825,-0.078 -6.69816,-0.73026 -7.11285,-1.21466 -0.0735,-0.0859 -0.5414,-0.33127 -1.03961,-0.54515 -0.49821,-0.21387 -1.28435,-0.61074 -1.74697,-0.88194 -1.29411,-0.75863 -0.99633,-0.39404 0.38822,0.47531 0.67613,0.42454 1.28851,0.84605 1.36083,0.93668 0.1439,0.18035 3.01942,1.47972 5.00025,2.2595 1.5767,0.62069 5.35982,1.36937 6.95228,1.37589 0.66775,0.003 1.29168,0.11614 1.38652,0.25203 0.18559,0.26592 -2.69093,0.13081 -5.83568,-0.27411 -1.64226,-0.21146 -4.91814,-1.0499 -5.17617,-1.32479 -0.0713,-0.0758 -0.79343,-0.43602 -1.60499,-0.80043 -2.93461,-1.31767 -5.99495,-4.01081 -7.45074,-6.55672 -0.32435,-0.56723 -0.6661,-1.08289 -0.75945,-1.14591 -0.21426,-0.14466 -1.96707,-3.37758 -2.20557,-4.068014 -0.098,-0.28361 -0.2702,-0.515657 -0.38272,-0.515657 -0.11252,0 -0.47557,-0.89298 -0.80679,-1.98439 l -0.60222,-1.984394 -0.44717,1.404248 c -0.24594,0.772326 -0.75775,2.000486 -1.13735,2.729233 -1.90698,3.660914 -2.62224,4.728484 -3.02161,4.509914 -0.11532,-0.0631 -0.14446,0.0358 -0.0648,0.21969 0.27761,0.64063 -1.846282,3.37596 -3.749631,4.82912 -0.342361,0.26138 -0.958552,0.75949 -1.369307,1.10692 -0.410764,0.34743 -1.469989,0.95373 -2.353828,1.34736 -0.883838,0.39363 -1.667618,0.79911 -1.741725,0.90108 -0.332815,0.4579 -4.866815,1.36284 -7.932842,1.5833 -1.796161,0.12916 -3.313944,0.23484 -3.37284,0.23484 -0.05889,0 -0.04813,-0.0844 0.02387,-0.18767 z m 10.254878,-5.61433 c 3.611046,-0.84148 7.649151,-3.47221 9.791962,-6.37923 0.58994,-0.80035 1.20862,-1.597737 1.37482,-1.771977 0.45054,-0.472327 1.75623,-3.410042 2.04491,-4.600892 0.13879,-0.572596 0.36733,-1.247343 0.50785,-1.499444 0.67734,-1.215224 0.63293,-7.294301 -0.0645,-8.82356 -0.0863,-0.189075 -0.22109,-0.60669 -0.29969,-0.928034 -0.13333,-0.545077 -0.39083,-0.636028 -3.83904,-1.355983 -2.032874,-0.424449 -3.812592,-0.848448 -3.954936,-0.942223 -0.142343,-0.09378 -2.238697,-0.592493 -4.658551,-1.108257 -2.419865,-0.515765 -4.63267,-1.032092 -4.917357,-1.147384 -0.284698,-0.1153 -2.555743,-0.639293 -5.04677,-1.164439 -2.491026,-0.525145 -4.762071,-1.045587 -5.046769,-1.15653 -0.284687,-0.110953 -1.21048,-0.355794 -2.057324,-0.54409 -1.681871,-0.373975 -1.938633,-0.298762 -2.562727,0.750705 -0.198256,0.333377 -0.787292,1.30376 -1.308982,2.156409 -1.734899,2.835547 -2.477028,5.774268 -2.480286,9.821584 -0.0049,5.70401 1.851673,10.299848 5.637,13.956475 2.849066,2.75221 6.784983,4.73843 10.148365,5.12127 1.541474,0.17546 5.234382,-0.0354 6.731986,-0.3844 z M 92.53244,97.543239 c -4.801306,-1.013045 -7.209374,-5.761597 -5.322087,-10.494809 0.497275,-1.247153 2.310046,-3.038455 3.841474,-3.795986 1.110658,-0.549399 5.622767,-0.543985 6.761429,0.0078 1.506173,0.73028 2.857144,2.017139 3.743404,3.565758 0.78574,1.372969 0.88274,1.743964 0.88274,3.375946 0,1.454063 -0.12692,2.070299 -0.61331,2.977986 -1.15125,2.14837 -1.959031,2.962481 -3.699896,3.728955 -1.913425,0.84245 -3.66502,1.041 -5.593754,0.63405 z m 8.24429,-5.086113 c 0.34509,-0.335456 0.48186,-0.535635 0.30393,-0.444849 -0.20964,0.106977 -0.32351,0.01507 -0.32351,-0.260978 0,-1.055211 -1.506418,-1.336442 -2.079491,-0.388216 -0.427599,0.707516 -0.123181,1.272793 0.809937,1.504009 0.342391,0.0848 0.631344,0.164535 0.642124,0.177095 0.0107,0.01256 0.30193,-0.251615 0.64701,-0.587061 z m -9.724903,-8.557428 c 0.08794,-0.12605 0.03659,-0.22918 -0.114123,-0.22918 -0.150747,0 -0.274085,0.10313 -0.274085,0.22918 0,0.126059 0.05136,0.229189 0.114125,0.229189 0.0628,0 0.186116,-0.10313 0.274083,-0.229189 z M 130.0025,107.78219 c 4.58531,-1.47322 8.08842,-4.26 10.66179,-8.481614 3.51108,-5.759906 3.58155,-14.031218 0.1679,-19.706002 -0.58502,-0.972523 -1.23572,-2.059437 -1.44598,-2.415343 -0.21027,-0.355915 -0.5542,-0.705533 -0.76429,-0.776916 -0.41277,-0.140265 -3.14869,0.332735 -3.57265,0.617664 -0.14235,0.09566 -2.35516,0.615014 -4.91736,1.154114 -2.56221,0.5391 -4.77502,1.055375 -4.91737,1.14728 -0.14234,0.0919 -2.35515,0.608838 -4.91735,1.148743 -2.56221,0.539906 -4.69739,1.068334 -4.74483,1.174288 -0.0474,0.105954 -0.28038,0.193406 -0.51762,0.194333 -0.48912,0.0017 -7.29988,1.514594 -7.37217,1.637378 -0.0258,0.04392 -0.20254,0.324584 -0.39264,0.623754 -0.64897,1.021282 -0.94625,4.638925 -0.61927,7.536103 0.16478,1.45998 0.39822,2.714417 0.51877,2.787629 0.12054,0.07319 0.42443,0.815125 0.6753,1.648682 0.4446,1.477256 1.56126,3.8544 1.92331,4.094337 0.0993,0.0658 0.65332,0.75216 1.23109,1.5252 1.33762,1.78967 3.75234,3.77236 5.69837,4.67886 0.83456,0.38875 1.64072,0.79747 1.79146,0.90825 0.15075,0.11078 1.08512,0.41274 2.07639,0.67099 2.3844,0.62123 7.2508,0.53474 9.43715,-0.16773 z M 117.57969,97.729649 c -4.03567,-0.62899 -6.72901,-3.641893 -6.72901,-7.527402 0,-2.356978 0.6946,-3.916363 2.41492,-5.421489 1.78903,-1.565232 3.06346,-2.028288 5.56489,-2.021938 2.46638,0.0061 3.86801,0.521646 5.45294,2.005073 1.74135,1.629825 2.40976,3.12868 2.40688,5.397253 -0.003,2.345336 -0.46739,3.513248 -2.0489,5.152524 -1.74275,1.806399 -4.63155,2.794729 -7.06172,2.415979 z m -2.83405,-5.249266 c 0.23909,-0.255106 0.26515,-0.533383 0.0911,-0.971804 -0.45035,-1.133974 -1.91554,-0.826177 -1.91554,0.402404 0,0.34171 0.0777,0.690045 0.17254,0.774084 0.31681,0.280547 1.31286,0.157139 1.65195,-0.204684 z m -11.80156,-13.13137 c -0.13523,-0.10792 -2.16752,-0.629306 -4.516207,-1.158653 -2.348693,-0.529337 -4.469775,-1.058294 -4.713525,-1.175448 -0.470805,-0.226287 -3.134939,-0.894149 -6.544647,-1.640653 -1.138751,-0.249311 -2.186932,-0.533755 -2.329276,-0.632087 -0.142343,-0.09834 -2.238687,-0.622792 -4.658551,-1.165461 -5.243716,-1.175925 -6.278916,-1.5119 -5.844128,-1.896702 0.530052,-0.46912 15.907772,-0.352962 20.337403,0.153621 1.992823,0.227899 3.662135,0.509259 3.709586,0.625227 0.04744,0.115976 0.375247,0.21086 0.728446,0.21086 0.601674,0 3.079419,0.804566 3.530249,1.146327 0.25456,0.192981 1.73704,4.716615 1.73704,5.300402 0,0.454073 -0.96336,0.610051 -1.43639,0.232567 z m 6.00867,-0.644136 c -0.26061,-0.230774 -0.2072,-2.192884 0.11006,-4.043201 0.41054,-2.394398 1.05064,-2.801462 5.28177,-3.358891 6.7088,-0.883849 25.79187,-0.739929 26.86728,0.202623 0.1155,0.101242 -0.46681,0.345555 -1.29404,0.542928 -0.82723,0.197374 -2.20283,0.531434 -3.0569,0.742346 -0.85407,0.210921 -2.25164,0.52272 -3.10571,0.692895 -4.47383,0.891394 -5.2137,1.057506 -5.63925,1.266114 -0.2547,0.124855 -2.45105,0.642248 -4.88078,1.149766 -2.42971,0.507518 -4.60883,1.012636 -4.84247,1.122488 -0.60275,0.283379 -7.92385,1.835722 -8.65758,1.835722 -0.33541,0 -0.6875,-0.06878 -0.78239,-0.15279 z"
       id="path2" /></g></svg>
